<svg xmlns="http://www.w3.org/2000/svg" viewBox="0 0 510.83 159.34"><defs><style>.cls-1{fill:#1d1d1b;}</style></defs><title>black_KK_LOGO_gesamt</title><g id="Ebene_1" data-name="Ebene 1"><path class="cls-1" d="M77.69,56.49A1.49,1.49,0,0,0,76.2,58V162.25a1.49,1.49,0,1,0,3,0V140.14l26.75,23.23a1.49,1.49,0,0,0,2.35-.55L119.93,135l24.87,28.28a1.49,1.49,0,0,0,2.5-1.52l-18.82-48.3a1.49,1.49,0,0,0-1.37-.95h0a1.49,1.49,0,0,0-1.37.91l-6.71,16L79.79,84.82,108.93,59.1a1.49,1.49,0,0,0-2-2.23L79.18,81.39V58A1.49,1.49,0,0,0,77.69,56.49ZM127,117.93l14.42,37-20.27-23Zm-9.31,14.54-11.42,27.3L80,136.89l23.86-20.23Zm-15.87-18L79.18,133.66v-45Z" transform="translate(-29.97 -31.65)"/><path class="cls-1" d="M163.63,52.74l14.43,1.7a1.53,1.53,0,0,0,.36-3L159.2,49.13a1.53,1.53,0,0,0-1.7,1.69L159.6,70a1.53,1.53,0,0,0,1.52,1.37h.17a1.53,1.53,0,0,0,1.36-1.69L161,54.48A76.61,76.61,0,0,1,67.33,175.2a1.53,1.53,0,0,0-1.69,2.55,79.67,79.67,0,0,0,98-125Z" transform="translate(-29.97 -31.65)"/><path class="cls-1" d="M58.67,152a1.53,1.53,0,0,0-3,.42l2.11,15.28a76.61,76.61,0,0,1,93.07-121,1.53,1.53,0,0,0,1.65-2.58A79.67,79.67,0,0,0,55.09,169.39L40.67,168.1a1.53,1.53,0,0,0-.27,3.05l19.07,1.7.13,0h.19a1.53,1.53,0,0,0,1.52-1.74Z" transform="translate(-29.97 -31.65)"/><path class="cls-1" d="M272.29,103.6H247.5A1.51,1.51,0,0,1,246,102.1V52.52a1.51,1.51,0,0,1,3,0v48.07h23.28a1.51,1.51,0,1,1,0,3Z" transform="translate(-29.97 -31.65)"/><path class="cls-1" d="M539.29,170.16H514.5a1.51,1.51,0,0,1-1.51-1.51V119.08a1.51,1.51,0,1,1,3,0v48.06h23.28a1.51,1.51,0,1,1,0,3Z" transform="translate(-29.97 -31.65)"/><path class="cls-1" d="M504.12,170.16H479.33a1.51,1.51,0,0,1-1.51-1.51V119.08a1.51,1.51,0,1,1,3,0v48.06h23.28a1.51,1.51,0,1,1,0,3Z" transform="translate(-29.97 -31.65)"/><path class="cls-1" d="M321.16,103.6a1.51,1.51,0,0,1-1.51-1.51V52.52a1.51,1.51,0,0,1,3,0V102.1A1.51,1.51,0,0,1,321.16,103.6Z" transform="translate(-29.97 -31.65)"/><path class="cls-1" d="M338.69,103.78a35.16,35.16,0,0,1-3.83-.18,1.51,1.51,0,0,1-1.33-1.5V52.52a1.51,1.51,0,0,1,1.35-1.5c.66-.07,16.21-1.57,26,7.24,5,4.52,7.55,10.9,7.55,19,0,8.33-2.6,14.87-7.73,19.43C353.75,102.83,344,103.78,338.69,103.78Zm-2.14-3.08c3.81.19,14.94.12,22.15-6.3,4.45-4,6.71-9.74,6.71-17.17,0-7.17-2.2-12.8-6.54-16.72-7.2-6.5-18.45-6.71-22.31-6.57Z" transform="translate(-29.97 -31.65)"/><path class="cls-1" d="M237.31,101.13,212.16,69.94l24.55-16.22A1.51,1.51,0,0,0,235,51.21L211.46,66.79V52.52a1.51,1.51,0,1,0-3,0V102.1a1.51,1.51,0,0,0,3,0V73.87L235,103a1.51,1.51,0,1,0,2.35-1.89Z" transform="translate(-29.97 -31.65)"/><path class="cls-1" d="M237.31,167.81l-25.14-31.19,24.55-16.22a1.51,1.51,0,0,0-1.66-2.52l-23.59,15.58V119.2a1.51,1.51,0,1,0-3,0v49.57a1.51,1.51,0,1,0,3,0V140.55L235,169.7a1.51,1.51,0,1,0,2.35-1.89Z" transform="translate(-29.97 -31.65)"/><path class="cls-1" d="M307.22,78.74a1.51,1.51,0,1,0,0-3H283.94V54h23.28a1.51,1.51,0,1,0,0-3H282.43a1.51,1.51,0,0,0-1.51,1.51V102.1a1.51,1.51,0,0,0,1.51,1.51h24.79a1.51,1.51,0,1,0,0-3H283.94V78.74Z" transform="translate(-29.97 -31.65)"/><path class="cls-1" d="M400.93,78.74a1.51,1.51,0,1,0,0-3H377.65V54h23.28a1.51,1.51,0,1,0,0-3H376.14a1.51,1.51,0,0,0-1.51,1.51V102.1a1.51,1.51,0,0,0,1.51,1.51h24.79a1.51,1.51,0,1,0,0-3H377.65V78.74Z" transform="translate(-29.97 -31.65)"/><path class="cls-1" d="M468.94,145.22a1.51,1.51,0,0,0,0-3H445.66V120.51h23.28a1.51,1.51,0,0,0,0-3H444.15a1.51,1.51,0,0,0-1.51,1.51v49.57a1.51,1.51,0,0,0,1.51,1.51h24.79a1.51,1.51,0,1,0,0-3H445.66V145.22Z" transform="translate(-29.97 -31.65)"/><path class="cls-1" d="M429.16,80.87c4.07-.29,9.79-1.36,13.67-4.91A13.06,13.06,0,0,0,447,65.89a12.68,12.68,0,0,0-4-9.7C436.64,50.31,425.07,50.94,424,51H413.79a1.51,1.51,0,0,0-1.51,1.51V79.21h0v22.89a1.51,1.51,0,0,0,3,0V80.74l9,.14,1,.05L443.15,103a1.51,1.51,0,1,0,2.35-1.89Zm-4.72-3-9.14-.14V54h8.89c.11,0,11.21-.75,16.74,4.38A9.65,9.65,0,0,1,444,65.89a10,10,0,0,1-3.19,7.84c-5.47,5-16.14,4.16-16.25,4.15Z" transform="translate(-29.97 -31.65)"/><path class="cls-1" d="M312.32,147.53c4.07-.29,9.79-1.36,13.67-4.91a13.06,13.06,0,0,0,4.17-10.07,12.68,12.68,0,0,0-4-9.7c-6.33-5.88-17.91-5.25-18.95-5.18H297a1.51,1.51,0,0,0-1.51,1.51v26.69h0v22.9a1.51,1.51,0,1,0,3,0V147.41l9,.14,1,.05,17.81,22.09a1.51,1.51,0,1,0,2.35-1.89Zm-4.72-3-9.14-.15V120.7h8.89c.11,0,11.21-.75,16.74,4.38a9.65,9.65,0,0,1,3.06,7.48,10,10,0,0,1-3.19,7.84c-5.47,5-16.15,4.16-16.25,4.15Z" transform="translate(-29.97 -31.65)"/><path class="cls-1" d="M244,170.28a1.51,1.51,0,0,1-1.37-2.14l16.12-35.26-10.23-12.8a1.51,1.51,0,1,1,2.36-1.88l9.28,11.61,5.14-11.24a1.51,1.51,0,0,1,2.74,0l22.67,49.55a1.51,1.51,0,0,1-2.55,1.57l-27.3-34.16L245.39,169.4A1.51,1.51,0,0,1,244,170.28Zm18.27-37.83,20.6,25.78-16.2-35.41Z" transform="translate(-29.97 -31.65)"/><path class="cls-1" d="M423.75,142.89h0c-2-1.93-4-3.92-6-5.9a9.61,9.61,0,0,1-2.89-7,9.92,9.92,0,0,1,2.88-7.13,9.18,9.18,0,0,1,6.81-2.92,9.5,9.5,0,0,1,6,2.24,1.38,1.38,0,0,0,1.85-.1,1.44,1.44,0,0,0,.41-1.09,1.39,1.39,0,0,0-.51-1,12,12,0,0,0-7.74-2.88,11.73,11.73,0,0,0-8.81,3.78,13.21,13.21,0,0,0,0,18.16l10,9.73.72.62,1.37,1.38a10.33,10.33,0,0,1,0,14.13,9.15,9.15,0,0,1-6.85,3,9.53,9.53,0,0,1-6-2.22,1.38,1.38,0,0,0-1.86.11,1.44,1.44,0,0,0-.39,1.09,1.39,1.39,0,0,0,.51,1,12.08,12.08,0,0,0,16.58-.93,13.15,13.15,0,0,0,0-18.11C427.73,146.77,425.71,144.79,423.75,142.89Z" transform="translate(-29.97 -31.65)"/><path class="cls-1" d="M396.42,142.89h0c-2-1.93-4-3.92-6-5.9a9.61,9.61,0,0,1-2.89-7,9.92,9.92,0,0,1,2.88-7.13,9.18,9.18,0,0,1,6.81-2.92,9.5,9.5,0,0,1,6,2.24,1.38,1.38,0,0,0,1.85-.1,1.44,1.44,0,0,0,.41-1.09,1.39,1.39,0,0,0-.51-1,12,12,0,0,0-7.74-2.88,11.73,11.73,0,0,0-8.81,3.78,13.21,13.21,0,0,0,0,18.16l10,9.73.72.62,1.37,1.38a10.33,10.33,0,0,1,0,14.13,9.15,9.15,0,0,1-6.85,3,9.52,9.52,0,0,1-6-2.22,1.38,1.38,0,0,0-1.86.11,1.44,1.44,0,0,0-.39,1.09,1.39,1.39,0,0,0,.51,1,12.09,12.09,0,0,0,16.58-.93,13.15,13.15,0,0,0,0-18.11C400.39,146.77,398.37,144.79,396.42,142.89Z" transform="translate(-29.97 -31.65)"/><path class="cls-1" d="M358.18,170.28a19.9,19.9,0,0,1-19.87-19.87V119.14a1.51,1.51,0,0,1,3,0v31.27a16.86,16.86,0,1,0,33.71,0V119.14a1.51,1.51,0,1,1,3,0v31.27A19.9,19.9,0,0,1,358.18,170.28Z" transform="translate(-29.97 -31.65)"/></g></svg>